# Blender 4.0.2
# www.blender.org
mtllib 120.mtl
o Cube
v -1.000000 -1.000000 1.000000
v -1.000000 1.000000 1.000000
v -1.000000 -1.000000 -1.000000
v -1.000000 1.000000 -1.000000
v 1.000000 -1.000000 1.000000
v 1.000000 1.000000 1.000000
v 1.000000 -1.000000 -1.000000
v 1.000000 1.000000 -1.000000
v -7.490515 0.199334 0.346447
v -7.490515 1.000000 0.346447
v -7.490515 0.199334 -0.346447
v -7.490515 1.000000 -0.346447
v -1.000000 0.888452 6.237231
v -1.000000 1.111548 6.237231
v -1.000000 0.888452 -6.237231
v -1.000000 1.111548 -6.237231
v -0.207337 0.888452 6.237231
v -0.207337 1.111548 6.237231
v -0.207337 0.888452 -6.237231
v -0.207337 1.111548 -6.237231
v -8.172444 0.941624 1.768806
v -8.172444 1.058376 1.768806
v -8.172444 0.941624 -1.768806
v -8.172444 1.058376 -1.768806
v -7.553203 0.941624 1.768806
v -7.553203 1.058376 1.768806
v -7.553203 0.941624 -1.768806
v -7.553203 1.058376 -1.768806
v -8.172444 1.000000 -0.058376
v -8.172444 1.000000 0.058376
v -8.172444 2.768806 -0.058376
v -8.172444 2.768806 0.058377
v -6.808586 1.000000 -0.058376
v -6.808586 1.000000 0.058376
v -7.442756 2.768806 -0.058376
v -7.442756 2.768806 0.058377
v -8.172444 0.941624 0.000000
v -8.172444 1.058376 0.000000
v -6.808586 0.941624 0.000000
v -6.808586 1.058376 0.000000
v -1.000000 0.888452 0.000000
v -1.000000 1.111548 0.000000
v 1.000000 0.888452 0.000000
v 1.000000 1.111548 0.000000
v 2.474309 0.002007 -0.376122
v 2.474309 -0.215282 -0.593411
v 2.298886 0.120754 -0.641789
v 2.474309 -0.782711 -0.593411
v 2.474309 -1.000000 -0.376122
v 2.264840 -1.000000 -0.651179
v 2.474309 -0.215282 0.593411
v 2.474309 0.002007 0.376122
v 2.298886 0.120754 0.641789
v 2.474309 -1.000000 0.376122
v 2.474309 -0.782711 0.593411
v 2.264840 -1.000000 0.651179
v 3.436467 0.002007 -0.376122
v 3.653756 -0.215282 -0.376122
v 3.436467 -0.215282 -0.593411
v 3.436467 -0.782711 -0.593411
v 3.653756 -0.782711 -0.376122
v 3.436467 -1.000000 -0.376122
v 3.436467 0.002007 0.376122
v 3.436467 -0.215282 0.593411
v 3.653756 -0.215282 0.376122
v 3.436467 -0.782711 0.593411
v 3.436467 -1.000000 0.376122
v 3.653756 -0.782711 0.376122
vn -0.0000 1.0000 -0.0000
vn -0.0000 -0.0000 -1.0000
vn -0.0000 -0.0000 1.0000
vn -0.0000 -1.0000 -0.0000
vn 0.2659 -0.0000 0.9640
vn -1.0000 -0.0000 -0.0000
vn -0.1817 -0.9834 -0.0000
vn -0.1002 -0.0000 -0.9950
vn -0.1002 -0.0000 0.9950
vn 0.5606 0.8281 -0.0000
vn 1.0000 -0.0000 -0.0000
vn 0.2659 -0.0000 -0.9640
vn 0.9818 -0.0000 0.1900
vn 0.9217 -0.0000 0.3880
vn 0.9413 0.3375 -0.0000
vn 0.9217 -0.0000 -0.3880
vn 0.9818 -0.0000 -0.1900
vn 0.8402 0.3834 -0.3834
vn 0.6804 -0.5182 -0.5182
vn 0.8402 0.3834 0.3834
vn 0.6804 -0.5182 0.5182
vn 0.5774 0.5774 -0.5774
vn 0.5774 -0.5774 -0.5773
vn 0.5774 0.5774 0.5773
vn 0.5774 -0.5774 0.5774
vn 0.7071 0.7071 -0.0000
vn 0.7071 -0.0000 -0.7071
vn 0.7071 -0.0000 0.7071
vn 0.7071 -0.7071 -0.0000
vn -0.0000 0.7071 -0.7071
vn -0.0000 -0.7071 -0.7071
vn -0.0000 -0.7071 0.7071
vn -0.0000 0.7071 0.7071
vt 0.875000 0.500000
vt 0.875000 0.750000
vt 0.625000 0.250000
vt 0.375000 0.500000
vt 0.375000 0.250000
vt 0.570787 0.750000
vt 0.429213 0.750000
vt 0.570786 0.750000
vt 0.625000 0.750000
vt 0.375000 1.000000
vt 0.375000 0.750000
vt 0.125000 0.750000
vt 0.125000 0.500000
vt 0.625000 0.500000
vt 0.375000 0.545771
vt 0.375000 0.704229
vt 0.625000 0.000000
vt 0.375000 0.000000
vt 0.625000 1.000000
vt 0.429213 0.500000
vt 0.570786 0.500000
vt 0.625000 0.704229
vt 0.625000 0.545771
vt 0.570787 0.545771
vt 0.429213 0.704229
vt 0.429213 0.545771
vt 0.570787 0.500000
vt 0.625000 0.125000
vt 0.375000 0.125000
vt 0.625000 0.625000
vt 0.375000 0.625000
vt 0.125000 0.625000
vt 0.875000 0.625000
vt 0.625000 0.704229
vt 0.570787 0.704229
vt 0.429213 0.750000
s 0
f 4/1/1 10/2/1 2/2/1
f 4/3/2 7/4/2 3/5/2
f 51/6/3 66/7/3 64/8/3
f 6/9/3 1/10/3 5/11/3
f 7/4/4 1/12/4 3/13/4
f 4/1/1 6/9/1 8/14/1
f 49/15/4 67/16/4 54/16/4
f 53/9/5 56/11/5 51/6/5
f 10/17/6 11/5/6 9/18/6
f 1/12/7 11/13/7 3/13/7
f 4/3/8 11/5/8 12/3/8
f 2/19/9 9/10/9 1/10/9
f 48/20/2 59/21/2 60/20/2
f 52/22/10 45/23/10 47/14/10
f 58/24/11 68/25/11 61/26/11
f 46/27/12 48/20/12 50/4/12
f 49/15/4 54/16/4 56/11/4
f 42/28/6 15/5/6 41/29/6
f 16/3/2 19/4/2 15/5/2
f 44/30/13 17/11/13 43/31/13
f 18/9/3 13/10/3 17/11/3
f 41/32/4 17/11/4 13/12/4
f 42/33/1 18/9/1 44/30/1
f 38/28/6 23/5/6 37/29/6
f 24/3/2 27/4/2 23/5/2
f 40/30/14 25/11/14 39/31/14
f 26/9/3 21/10/3 25/11/3
f 37/32/4 25/11/4 21/12/4
f 38/33/1 26/9/1 40/30/1
f 30/17/6 31/5/6 29/18/6
f 32/3/1 35/4/1 31/5/1
f 36/14/15 33/11/15 35/4/15
f 34/9/4 29/10/4 33/11/4
f 35/4/2 29/12/2 31/13/2
f 36/14/3 30/2/3 34/9/3
f 28/14/1 38/33/1 40/30/1
f 27/4/4 37/32/4 23/13/4
f 28/14/16 39/31/16 27/4/16
f 22/17/6 37/29/6 21/18/6
f 20/14/1 42/33/1 44/30/1
f 19/4/4 41/32/4 15/13/4
f 20/14/17 43/31/17 19/4/17
f 14/17/6 41/29/6 13/18/6
f 45/23/18 46/14/18 47/14/18
f 48/20/19 49/4/19 50/4/19
f 51/6/20 52/9/20 53/9/20
f 54/16/21 55/11/21 56/11/21
f 57/23/22 58/24/22 59/21/22
f 60/20/23 61/26/23 62/15/23
f 63/34/24 64/8/24 65/35/24
f 66/7/25 67/16/25 68/25/25
f 57/23/26 65/35/26 58/24/26
f 61/26/27 59/21/27 58/24/27
f 66/7/28 65/35/28 64/8/28
f 62/15/29 68/25/29 67/16/29
f 57/23/30 46/27/30 45/23/30
f 49/15/31 60/20/31 62/15/31
f 67/16/32 55/36/32 54/16/32
f 52/22/33 64/8/33 63/34/33
f 52/22/1 57/23/1 45/23/1
f 4/1/1 12/1/1 10/2/1
f 4/3/2 8/14/2 7/4/2
f 51/6/3 55/36/3 66/7/3
f 6/9/3 2/19/3 1/10/3
f 7/4/4 5/11/4 1/12/4
f 4/1/1 2/2/1 6/9/1
f 49/15/4 62/15/4 67/16/4
f 53/9/5 6/9/5 5/11/5
f 5/11/5 56/11/5 53/9/5
f 56/11/5 55/36/5 51/6/5
f 10/17/6 12/3/6 11/5/6
f 1/12/7 9/12/7 11/13/7
f 4/3/8 3/5/8 11/5/8
f 2/19/9 10/19/9 9/10/9
f 48/20/2 46/27/2 59/21/2
f 47/14/10 8/14/10 6/9/10
f 6/9/10 53/9/10 47/14/10
f 53/9/10 52/22/10 47/14/10
f 58/24/11 65/35/11 68/25/11
f 50/4/12 7/4/12 47/14/12
f 7/4/12 8/14/12 47/14/12
f 50/4/12 47/14/12 46/27/12
f 56/11/4 5/11/4 7/4/4
f 7/4/4 50/4/4 56/11/4
f 50/4/4 49/15/4 56/11/4
f 42/28/6 16/3/6 15/5/6
f 16/3/2 20/14/2 19/4/2
f 44/30/13 18/9/13 17/11/13
f 18/9/3 14/19/3 13/10/3
f 41/32/4 43/31/4 17/11/4
f 42/33/1 14/2/1 18/9/1
f 38/28/6 24/3/6 23/5/6
f 24/3/2 28/14/2 27/4/2
f 40/30/14 26/9/14 25/11/14
f 26/9/3 22/19/3 21/10/3
f 37/32/4 39/31/4 25/11/4
f 38/33/1 22/2/1 26/9/1
f 30/17/6 32/3/6 31/5/6
f 32/3/1 36/14/1 35/4/1
f 36/14/15 34/9/15 33/11/15
f 34/9/4 30/19/4 29/10/4
f 35/4/2 33/11/2 29/12/2
f 36/14/3 32/1/3 30/2/3
f 28/14/1 24/1/1 38/33/1
f 27/4/4 39/31/4 37/32/4
f 28/14/16 40/30/16 39/31/16
f 22/17/6 38/28/6 37/29/6
f 20/14/1 16/1/1 42/33/1
f 19/4/4 43/31/4 41/32/4
f 20/14/17 44/30/17 43/31/17
f 14/17/6 42/28/6 41/29/6
f 57/23/26 63/34/26 65/35/26
f 61/26/27 60/20/27 59/21/27
f 66/7/28 68/25/28 65/35/28
f 62/15/29 61/26/29 68/25/29
f 57/23/30 59/21/30 46/27/30
f 49/15/31 48/20/31 60/20/31
f 67/16/32 66/7/32 55/36/32
f 52/22/33 51/6/33 64/8/33
f 52/22/1 63/34/1 57/23/1
