# Blender 4.0.2
# www.blender.org
mtllib 80.mtl
o Cube
v -1.000000 -1.000000 1.000000
v -1.000000 1.000000 1.000000
v -1.000000 -1.000000 -1.000000
v -1.000000 1.000000 -1.000000
v 1.000000 -1.000000 1.000000
v 1.000000 1.000000 1.000000
v 1.000000 -1.000000 -1.000000
v 1.000000 1.000000 -1.000000
v 2.474309 0.002007 -0.593411
v 2.474309 -1.000000 -0.593411
v 2.474309 0.002007 0.593411
v 2.474309 -1.000000 0.593411
v -7.490515 0.199334 0.346447
v -7.490515 1.000000 0.346447
v -7.490515 0.199334 -0.346447
v -7.490515 1.000000 -0.346447
v 3.653756 0.002007 -0.593411
v 3.653756 -1.000000 -0.593411
v 3.653756 0.002007 0.593411
v 3.653756 -1.000000 0.593411
v -1.000000 0.888452 6.237231
v -1.000000 1.111548 6.237231
v -1.000000 0.888452 -6.237231
v -1.000000 1.111548 -6.237231
v 1.000000 0.888452 6.237231
v 1.000000 1.111548 6.237231
v 1.000000 0.888452 -6.237231
v 1.000000 1.111548 -6.237231
v -8.172444 0.941624 1.768806
v -8.172444 1.058376 1.768806
v -8.172444 0.941624 -1.768806
v -8.172444 1.058376 -1.768806
v -7.553203 0.941624 1.768806
v -7.553203 1.058376 1.768806
v -7.553203 0.941624 -1.768806
v -7.553203 1.058376 -1.768806
v -8.172444 1.000000 -0.058376
v -8.172444 1.000000 0.058376
v -8.172444 2.768806 -0.058376
v -8.172444 2.768806 0.058377
v -6.808586 1.000000 -0.058376
v -6.808586 1.000000 0.058376
v -7.442756 2.768806 -0.058376
v -7.442756 2.768806 0.058377
v -8.172444 0.941624 0.000000
v -8.172444 1.058376 0.000000
v -6.808586 0.941624 0.000000
v -6.808586 1.058376 0.000000
vn -0.0000 1.0000 -0.0000
vn -0.0000 -0.0000 -1.0000
vn 0.2659 -0.0000 0.9640
vn -0.0000 -0.0000 1.0000
vn -0.0000 -1.0000 -0.0000
vn -1.0000 -0.0000 -0.0000
vn -0.1817 -0.9834 -0.0000
vn -0.1002 -0.0000 -0.9950
vn -0.1002 -0.0000 0.9950
vn 0.5606 0.8281 -0.0000
vn 0.2659 -0.0000 -0.9640
vn 1.0000 -0.0000 -0.0000
vn 0.9217 -0.0000 0.3880
vn 0.9413 0.3375 -0.0000
vn 0.9217 -0.0000 -0.3880
vt 0.875000 0.500000
vt 0.875000 0.750000
vt 0.625000 0.250000
vt 0.375000 0.500000
vt 0.375000 0.250000
vt 0.375000 0.750000
vt 0.625000 0.750000
vt 0.375000 1.000000
vt 0.125000 0.750000
vt 0.125000 0.500000
vt 0.625000 0.500000
vt 0.625000 0.000000
vt 0.375000 0.000000
vt 0.625000 1.000000
vt 0.625000 0.125000
vt 0.375000 0.125000
vt 0.625000 0.625000
vt 0.375000 0.625000
vt 0.125000 0.625000
vt 0.875000 0.625000
s 0
f 4/1/1 14/2/1 2/2/1
f 4/3/2 7/4/2 3/5/2
f 5/6/3 11/7/3 6/7/3
f 6/7/4 1/8/4 5/6/4
f 7/4/5 1/9/5 3/10/5
f 4/1/1 6/7/1 8/11/1
f 9/11/2 18/4/2 10/4/2
f 7/4/5 12/6/5 5/6/5
f 14/12/6 15/5/6 13/13/6
f 1/9/7 15/10/7 3/10/7
f 4/3/8 15/5/8 16/3/8
f 2/14/9 13/8/9 1/8/9
f 6/7/10 9/11/10 8/11/10
f 7/4/11 9/11/11 10/4/11
f 17/11/12 20/6/12 18/4/12
f 12/6/4 19/7/4 11/7/4
f 11/7/1 17/11/1 9/11/1
f 10/4/5 20/6/5 12/6/5
f 24/3/2 27/4/2 23/5/2
f 22/12/6 23/5/6 21/13/6
f 26/7/4 21/8/4 25/6/4
f 28/11/12 25/6/12 27/4/12
f 27/4/5 21/9/5 23/10/5
f 46/15/6 31/5/6 45/16/6
f 32/3/2 35/4/2 31/5/2
f 48/17/13 33/6/13 47/18/13
f 34/7/4 29/8/4 33/6/4
f 45/19/5 33/6/5 29/9/5
f 46/20/1 34/7/1 48/17/1
f 38/12/6 39/5/6 37/13/6
f 40/3/1 43/4/1 39/5/1
f 44/11/14 41/6/14 43/4/14
f 42/7/5 37/8/5 41/6/5
f 43/4/2 37/9/2 39/10/2
f 44/11/4 38/2/4 42/7/4
f 36/11/1 46/20/1 48/17/1
f 35/4/5 45/19/5 31/10/5
f 36/11/15 47/18/15 35/4/15
f 30/12/6 45/16/6 29/13/6
f 24/1/1 26/7/1 28/11/1
f 4/1/1 16/1/1 14/2/1
f 4/3/2 8/11/2 7/4/2
f 5/6/3 12/6/3 11/7/3
f 6/7/4 2/14/4 1/8/4
f 7/4/5 5/6/5 1/9/5
f 4/1/1 2/2/1 6/7/1
f 9/11/2 17/11/2 18/4/2
f 7/4/5 10/4/5 12/6/5
f 14/12/6 16/3/6 15/5/6
f 1/9/7 13/9/7 15/10/7
f 4/3/8 3/5/8 15/5/8
f 2/14/9 14/14/9 13/8/9
f 6/7/10 11/7/10 9/11/10
f 7/4/11 8/11/11 9/11/11
f 17/11/12 19/7/12 20/6/12
f 12/6/4 20/6/4 19/7/4
f 11/7/1 19/7/1 17/11/1
f 10/4/5 18/4/5 20/6/5
f 24/3/2 28/11/2 27/4/2
f 22/12/6 24/3/6 23/5/6
f 26/7/4 22/14/4 21/8/4
f 28/11/12 26/7/12 25/6/12
f 27/4/5 25/6/5 21/9/5
f 46/15/6 32/3/6 31/5/6
f 32/3/2 36/11/2 35/4/2
f 48/17/13 34/7/13 33/6/13
f 34/7/4 30/14/4 29/8/4
f 45/19/5 47/18/5 33/6/5
f 46/20/1 30/2/1 34/7/1
f 38/12/6 40/3/6 39/5/6
f 40/3/1 44/11/1 43/4/1
f 44/11/14 42/7/14 41/6/14
f 42/7/5 38/14/5 37/8/5
f 43/4/2 41/6/2 37/9/2
f 44/11/4 40/1/4 38/2/4
f 36/11/1 32/1/1 46/20/1
f 35/4/5 47/18/5 45/19/5
f 36/11/15 48/17/15 47/18/15
f 30/12/6 46/15/6 45/16/6
f 24/1/1 22/2/1 26/7/1
